REM DIRINDEX 1\2\5,1\2\6,1\2\7,1\2\8,1\3\9,1\3\10,1\3\11,1\4\12,1\4\13,1\4\14,1\4\15,1\4\16
REM DIRNAME cjc034,folder01,folder02,folder03,folder04,folder05,folder06,folder07,folder08,folder09,folder10,folder11,folder12,folder13,folder14,folder15
TITLE ""
FILE "1200_2_sec04_1401_1420.mp3" MP3
  TRACK 01 AUDIO
    TITLE "0:"
    INDEX 01 00:00:00
  TRACK 02 AUDIO
    TITLE "10:cjc034_02913"
    INDEX 01 00:00:13
  TRACK 03 AUDIO
    TITLE "0:"
    INDEX 01 00:01:48
  TRACK 04 AUDIO
    TITLE "9:cjc034_02914"
    INDEX 01 00:01:52
  TRACK 05 AUDIO
    TITLE "0:"
    INDEX 01 00:03:31
  TRACK 06 AUDIO
    TITLE "10:cjc034_02915"
    INDEX 01 00:04:15
  TRACK 07 AUDIO
    TITLE "0:"
    INDEX 01 00:06:31
  TRACK 08 AUDIO
    TITLE "9:cjc034_02916"
    INDEX 01 00:06:43
  TRACK 09 AUDIO
    TITLE "0:"
    INDEX 01 00:08:46
  TRACK 10 AUDIO
    TITLE "11:cjc034_02917"
    INDEX 01 00:10:12
  TRACK 11 AUDIO
    TITLE "0:"
    INDEX 01 00:13:39
  TRACK 12 AUDIO
    TITLE "10:cjc034_02918"
    INDEX 01 00:14:41
  TRACK 13 AUDIO
    TITLE "0:"
    INDEX 01 00:17:33
  TRACK 14 AUDIO
    TITLE "9:cjc034_02919"
    INDEX 01 00:17:37
  TRACK 15 AUDIO
    TITLE "0:"
    INDEX 01 00:18:66
  TRACK 16 AUDIO
    TITLE "10:cjc034_02920"
    INDEX 01 00:19:48
  TRACK 17 AUDIO
    TITLE "0:"
    INDEX 01 00:21:13
  TRACK 18 AUDIO
    TITLE "9:cjc034_02921"
    INDEX 01 00:21:17
  TRACK 19 AUDIO
    TITLE "0:"
    INDEX 01 00:22:56
  TRACK 20 AUDIO
    TITLE "10:cjc034_02922"
    INDEX 01 00:23:40
  TRACK 21 AUDIO
    TITLE "0:"
    INDEX 01 00:25:60
  TRACK 22 AUDIO
    TITLE "9:cjc034_02923"
    INDEX 01 00:25:64
  TRACK 23 AUDIO
    TITLE "0:"
    INDEX 01 00:29:19
  TRACK 24 AUDIO
    TITLE "10:cjc034_02924"
    INDEX 01 00:30:01
  TRACK 25 AUDIO
    TITLE "0:"
    INDEX 01 00:32:07
  TRACK 26 AUDIO
    TITLE "9:cjc034_02925"
    INDEX 01 00:32:11
  TRACK 27 AUDIO
    TITLE "0:"
    INDEX 01 00:33:48
  TRACK 28 AUDIO
    TITLE "10:cjc034_02926"
    INDEX 01 00:34:34
  TRACK 29 AUDIO
    TITLE "0:"
    INDEX 01 00:36:36
  TRACK 30 AUDIO
    TITLE "9:cjc034_02927"
    INDEX 01 00:36:44
  TRACK 31 AUDIO
    TITLE "0:"
    INDEX 01 00:38:12
  TRACK 32 AUDIO
    TITLE "10:cjc034_02928"
    INDEX 01 00:38:69
  TRACK 33 AUDIO
    TITLE "0:"
    INDEX 01 00:40:13
  TRACK 34 AUDIO
    TITLE "9:cjc034_02929"
    INDEX 01 00:40:17
  TRACK 35 AUDIO
    TITLE "0:"
    INDEX 01 00:41:51
  TRACK 36 AUDIO
    TITLE "10:cjc034_02930"
    INDEX 01 00:42:33
  TRACK 37 AUDIO
    TITLE "0:"
    INDEX 01 00:46:27
  TRACK 38 AUDIO
    TITLE "9:cjc034_02931"
    INDEX 01 00:46:33
  TRACK 39 AUDIO
    TITLE "0:"
    INDEX 01 00:47:60
  TRACK 40 AUDIO
    TITLE "10:cjc034_02932"
    INDEX 01 00:48:42
  TRACK 41 AUDIO
    TITLE "0:"
    INDEX 01 00:50:15
  TRACK 42 AUDIO
    TITLE "9:cjc034_02933"
    INDEX 01 00:50:23
  TRACK 43 AUDIO
    TITLE "0:"
    INDEX 01 00:51:54
  TRACK 44 AUDIO
    TITLE "10:cjc034_02934"
    INDEX 01 00:52:37
  TRACK 45 AUDIO
    TITLE "0:"
    INDEX 01 00:53:45
  TRACK 46 AUDIO
    TITLE "9:cjc034_02935"
    INDEX 01 00:53:51
  TRACK 47 AUDIO
    TITLE "0:"
    INDEX 01 00:55:08
  TRACK 48 AUDIO
    TITLE "10:cjc034_02936"
    INDEX 01 00:55:65
  TRACK 49 AUDIO
    TITLE "0:"
    INDEX 01 00:56:72
  TRACK 50 AUDIO
    TITLE "9:cjc034_02937"
    INDEX 01 00:57:03
  TRACK 51 AUDIO
    TITLE "0:"
    INDEX 01 00:59:57
  TRACK 52 AUDIO
    TITLE "10:cjc034_02938"
    INDEX 01 01:00:41
  TRACK 53 AUDIO
    TITLE "0:"
    INDEX 01 01:01:68
  TRACK 54 AUDIO
    TITLE "9:cjc034_02939"
    INDEX 01 01:01:72
  TRACK 55 AUDIO
    TITLE "0:"
    INDEX 01 01:06:14
  TRACK 56 AUDIO
    TITLE "10:cjc034_02940"
    INDEX 01 01:06:71
  TRACK 57 AUDIO
    TITLE "0:"
    INDEX 01 01:08:09
  TRACK 58 AUDIO
    TITLE "9:cjc034_02941"
    INDEX 01 01:08:13
  TRACK 59 AUDIO
    TITLE "0:"
    INDEX 01 01:11:11
  TRACK 60 AUDIO
    TITLE "10:cjc034_02942"
    INDEX 01 01:11:66
  TRACK 61 AUDIO
    TITLE "0:"
    INDEX 01 01:13:10
  TRACK 62 AUDIO
    TITLE "9:cjc034_02943"
    INDEX 01 01:13:12
  TRACK 63 AUDIO
    TITLE "0:"
    INDEX 01 01:14:57
  TRACK 64 AUDIO
    TITLE "10:cjc034_02944"
    INDEX 01 01:15:39
  TRACK 65 AUDIO
    TITLE "0:"
    INDEX 01 01:18:60
  TRACK 66 AUDIO
    TITLE "9:cjc034_02945"
    INDEX 01 01:18:64
  TRACK 67 AUDIO
    TITLE "0:"
    INDEX 01 01:22:15
  TRACK 68 AUDIO
    TITLE "10:cjc034_02946"
    INDEX 01 01:23:07
  TRACK 69 AUDIO
    TITLE "0:"
    INDEX 01 01:25:39
  TRACK 70 AUDIO
    TITLE "9:cjc034_02947"
    INDEX 01 01:25:43
  TRACK 71 AUDIO
    TITLE "0:"
    INDEX 01 01:26:72
  TRACK 72 AUDIO
    TITLE "10:cjc034_02948"
    INDEX 01 01:27:53
  TRACK 73 AUDIO
    TITLE "0:"
    INDEX 01 01:29:33
  TRACK 74 AUDIO
    TITLE "9:cjc034_02949"
    INDEX 01 01:29:45
  TRACK 75 AUDIO
    TITLE "0:"
    INDEX 01 01:31:32
  TRACK 76 AUDIO
    TITLE "10:cjc034_02950"
    INDEX 01 01:32:12
  TRACK 77 AUDIO
    TITLE "0:"
    INDEX 01 01:34:30
  TRACK 78 AUDIO
    TITLE "9:cjc034_02951"
    INDEX 01 01:34:34
  TRACK 79 AUDIO
    TITLE "0:"
    INDEX 01 01:36:21
  TRACK 80 AUDIO
    TITLE "10:cjc034_02952"
    INDEX 01 01:36:70
  TRACK 81 AUDIO
    TITLE "0:"
    INDEX 01 01:39:41
  TRACK 82 AUDIO
    TITLE "9:cjc034_02953"
    INDEX 01 01:39:43
  TRACK 83 AUDIO
    TITLE "0:"
    INDEX 01 01:41:12
